<svg width="130" height="130" viewBox="0 0 130 130" fill="none" xmlns="http://www.w3.org/2000/svg">
<rect x="0.5" y="0.5" width="129" height="129" rx="8.5" fill="white"/>
<g clip-path="url(#clip0_4_244)">
<path d="M99.7689 29.7059C90.8911 16.9186 73.217 13.172 60.5112 21.2354L38.1131 35.5701C32.0045 39.3982 27.7693 45.6696 26.5475 52.7556C25.4887 58.7012 26.3846 64.8098 29.2353 70.1039C27.2806 73.036 25.9774 76.2939 25.4073 79.7147C24.1041 86.9635 25.8145 94.4567 30.0498 100.402C39.009 113.19 56.6017 116.936 69.3075 108.873L91.7056 94.6196C97.8141 90.7916 102.049 84.5201 103.271 77.4342C104.33 71.4885 103.434 65.3799 100.583 60.0858C102.538 57.1537 103.841 53.8958 104.411 50.475C105.796 43.1447 104.086 35.6516 99.7689 29.7059Z" fill="#FF3E00"/>
<path d="M58.3121 101.624C51.0632 103.497 43.4886 100.647 39.2533 94.5381C36.647 90.9544 35.6697 86.4748 36.4027 82.0767C36.5656 81.3436 36.7285 80.6921 36.8914 79.959L37.2986 78.6559L38.4389 79.4703C41.1266 81.4251 44.0588 82.8911 47.2352 83.8685L48.0497 84.1129L47.9682 84.9273C47.8868 86.0676 48.2126 87.2893 48.8642 88.2667C50.1673 90.14 52.4479 91.0359 54.6469 90.4658C55.1356 90.3029 55.6243 90.14 56.0315 89.8956L78.3482 75.6423C79.4884 74.9093 80.2215 73.8505 80.4658 72.5473C80.7102 71.2441 80.3844 69.8595 79.6513 68.8007C78.3482 66.9274 76.0676 66.1129 73.8686 66.6831C73.3799 66.846 72.8912 67.0089 72.4839 67.2532L63.932 72.7102C62.5473 73.6061 60.9998 74.2577 59.3709 74.6649C52.1221 76.5382 44.5474 73.6876 40.3122 67.579C37.7873 63.9953 36.7285 59.5157 37.5429 55.1175C38.276 50.8823 40.8823 47.0542 44.5474 44.7737L66.9455 30.5204C68.3301 29.6244 69.8776 28.9729 71.5066 28.4842C78.7554 26.6109 86.33 29.4615 90.5653 35.5701C93.1716 39.1538 94.149 43.6334 93.416 48.0316C93.2531 48.7646 93.0902 49.4162 92.8458 50.1492L92.4386 51.4524L91.2983 50.6379C88.6106 48.6832 85.6785 47.2171 82.502 46.2397L81.6875 45.9954L81.769 45.1809C81.8504 44.0407 81.5246 42.8189 80.873 41.8416C79.5699 39.9683 77.2894 39.1538 75.0903 39.7239C74.6016 39.8868 74.1129 40.0497 73.7057 40.2941L51.389 54.5474C50.2488 55.2804 49.5157 56.3392 49.2714 57.6424C49.0271 58.9456 49.3528 60.3302 50.0859 61.389C51.389 63.2623 53.6696 64.0768 55.8687 63.5066C56.3573 63.3437 56.846 63.1808 57.2533 62.9365L65.8052 57.4795C67.1899 56.5836 68.7374 55.932 70.3663 55.4433C77.6151 53.57 85.1898 56.4207 89.425 62.5293C92.0314 66.1129 93.0087 70.5926 92.2757 74.9907C91.5427 79.226 88.9364 83.054 85.2712 85.3346L62.8731 99.5879C61.4885 100.484 59.941 101.135 58.3121 101.624Z" fill="white"/>
</g>
<rect x="0.5" y="0.5" width="129" height="129" rx="8.5" stroke="#E6E8EC"/>
<defs>
<clipPath id="clip0_4_244">
<rect width="79.9" height="96.1081" fill="white" transform="translate(25 17)"/>
</clipPath>
</defs>
</svg>
